<!-- Generated by IcoMoon.io -->
<svg version="1.1" xmlns="http://www.w3.org/2000/svg" width="1024" height="1024" viewBox="0 0 1024 1024">
<title></title>
<g id="icomoon-ignore">
</g>
<path fill="#2196f3" d="M1023.171 144.77c-2.014-6.162-7.339-10.666-13.773-11.606l-61.133-8.892-27.358-55.399c-5.734-11.674-24.867-11.674-30.6 0l-27.358 55.399-61.136 8.894c-6.434 0.938-11.758 5.428-13.79 11.606-1.995 6.177-0.342 12.97 4.318 17.494l44.254 43.129-10.443 60.894c-1.093 6.4 1.536 12.869 6.776 16.693 5.307 3.858 12.235 4.333 17.987 1.296l54.683-28.758 54.683 28.758c2.493 1.314 5.24 1.962 7.954 1.962 3.533 0 7.067-1.093 10.037-3.261 5.256-3.821 7.885-10.291 6.776-16.691l-10.443-60.896 44.254-43.128c4.636-4.541 6.309-11.317 4.313-17.495zM944.356 187.233c-4.010 3.907-5.853 9.574-4.898 15.104l6.11 35.653-32.016-16.829c-2.493-1.314-5.222-1.962-7.955-1.962-2.73 0-5.443 0.648-7.954 1.962l-32.019 16.829 6.11-35.653c0.957-5.53-0.888-11.178-4.898-15.104l-25.925-25.259 35.806-5.205c5.565-0.803 10.36-4.301 12.853-9.337l16.008-32.426 16.008 32.426c2.493 5.035 7.288 8.534 12.853 9.337l35.806 5.205-25.891 25.259z"></path>
<path fill="#2196f3" d="M836.272 656.71h-34.134v34.134h34.134v-34.134z"></path>
<path fill="#2196f3" d="M836.272 724.979h-34.134v34.134h34.134v-34.134z"></path>
<path fill="#2196f3" d="M870.406 690.845h-34.134v34.134h34.134v-34.134z"></path>
<path fill="#2196f3" d="M802.139 690.845h-34.134v34.134h34.134v-34.134z"></path>
<path fill="#2196f3" d="M716.803 844.447h-34.134v34.134h34.134v-34.134z"></path>
<path fill="#2196f3" d="M716.803 912.715h-34.134v34.134h34.134v-34.134z"></path>
<path fill="#2196f3" d="M750.939 878.582h-34.136v34.134h34.136v-34.134z"></path>
<path fill="#2196f3" d="M682.669 878.582h-34.134v34.134h34.134v-34.134z"></path>
<path fill="#2196f3" d="M512 776.18h-34.134v34.134h34.134v-34.134z"></path>
<path fill="#2196f3" d="M512 844.447h-34.134v34.134h34.134v-34.134z"></path>
<path fill="#2196f3" d="M546.134 810.313h-34.134v34.134h34.134v-34.134z"></path>
<path fill="#2196f3" d="M477.866 810.313h-34.134v34.134h34.134v-34.134z"></path>
<path fill="#2196f3" d="M187.728 195.903h-34.134v34.134h34.134v-34.134z"></path>
<path fill="#2196f3" d="M187.728 264.173h-34.134v34.134h34.134v-34.134z"></path>
<path fill="#2196f3" d="M221.861 230.037h-34.134v34.134h34.134v-34.134z"></path>
<path fill="#2196f3" d="M153.594 230.037h-34.134v34.134h34.134v-34.134z"></path>
<path fill="#212121" d="M790.872 453.102c-9.197-12.408-22.698-20.394-38.024-22.546-15.394-2.184-30.584 1.859-42.872 11.264l-40.075 30.72-60.725 45.347-43.453-17.307c77.483-34.765 131.638-112.266 131.638-202.243 0-122.336-99.928-221.869-222.758-221.869s-222.755 99.533-222.755 221.869c0 44.341 13.259 85.573 35.84 120.27l-88.441-0.768c-0.051 0-0.102 0-0.154 0-0.274 0-0.494 0.136-0.75 0.154-1.69 0.069-3.346 0.41-4.966 0.99-0.41 0.154-0.835 0.24-1.227 0.426-0.205 0.086-0.41 0.102-0.614 0.205l-103.459 51.080c-0.018 0-0.034 0-0.034 0.016l-60.589 29.137c-0.666 0.29-1.348 0.682-2.014 1.125-24.15 16.077-32.376 47.651-19.148 73.456 7.048 13.722 19.046 23.826 33.793 28.45 5.684 1.774 11.486 2.646 17.254 2.646 9.268 0 18.45-2.27 26.862-6.758l44.409-23.619 72.448-37.411 43.419-0.256-174.134 173.299c-0.016 0.018-0.034 0.018-0.052 0.034l-42.839 42.667c-10.12 10.070-15.684 23.432-15.684 37.685 0 14.234 5.564 27.63 15.684 37.718 10.394 10.342 24.064 15.53 37.735 15.53 13.688 0 27.34-5.187 37.769-15.53l42.053-41.883 55.706-41.592 28.827 28.706-56.373 56.133c-0.016 0.019-0.035 0.019-0.053 0.035l-42.838 42.666c-10.12 10.070-15.684 23.432-15.684 37.685 0 14.235 5.564 27.63 15.684 37.718 10.394 10.342 24.082 15.531 37.752 15.531s27.358-5.189 37.77-15.531l111.411-110.933c0.018-0.019 0.018-0.035 0.034-0.053l32.309-32-0.12-0.12c0.205-0.205 0.494-0.275 0.701-0.494l165.31-181.062 111.072 15.803c0.802 0.12 1.603 0.171 2.406 0.171 2.066 0 4.062-0.494 5.99-1.229 0.563-0.203 1.058-0.478 1.587-0.75 0.614-0.307 1.262-0.477 1.845-0.869l102.827-68.267c0.376-0.256 0.581-0.667 0.938-0.939 0.41-0.323 0.923-0.459 1.296-0.819l40.686-38.11c21.17-19.836 24.089-52.331 6.782-75.576zM68.173 568.645c-5.546 2.97-11.844 3.565-17.868 1.656-5.974-1.861-10.82-5.941-13.654-11.453-5.154-10.037-2.168-22.256 6.86-28.861l42.037-20.224 14.37 42-31.744 16.881zM180.081 510.157l-49.545 25.601-14.044-41.065 64.856-32.018-1.267 47.481zM663.262 298.304c0 29.389-7.014 57.107-19.166 81.902l-133.805-60.774c-1.4-18.346-10.922-34.406-25.224-44.408l46.849-155.531c76.085 24.202 131.346 95.184 131.346 178.811zM286.016 298.304c0-103.512 84.618-187.737 188.624-187.737 8.090 0 16.008 0.682 23.842 1.672l-45.824 152.118c-0.614-0.018-1.195-0.187-1.827-0.187-33.042 0-59.923 26.794-59.923 59.734s26.881 59.736 59.923 59.736c22.221 0 41.421-12.27 51.781-30.227l123.598 56.15c-34.39 46.285-89.432 76.478-151.572 76.478-104.003 0-188.621-84.225-188.621-187.737zM476.619 323.904c0 14.115-11.573 25.6-25.789 25.6s-25.787-11.485-25.787-25.6c0-14.114 11.571-25.6 25.787-25.6s25.789 11.486 25.789 25.6zM78.875 804.68c-7.56 7.493-19.798 7.477-27.34 0.019-3.636-3.637-5.632-8.43-5.632-13.534 0-5.086 1.996-9.883 5.632-13.483l30.786-30.67 27.239 27.12-30.685 30.549zM181.719 924.15c-7.56 7.493-19.814 7.51-27.358 0.018-3.637-3.635-5.632-8.429-5.632-13.534 0-5.085 1.995-9.882 5.632-13.482l30.806-30.686 27.256 27.12-30.704 30.565zM293.133 813.147c-0.019 0.016-0.035 0.016-0.053 0.034l-56.475 56.32-27.256-27.12 56.422-56.166c0 0 0 0 0-0.016 0.019-0.018 0.034-0.018 0.053-0.034 1.28-1.28 2.082-2.816 2.867-4.334 0.222-0.445 0.648-0.821 0.837-1.28 0.53-1.314 0.614-2.73 0.819-4.114 0.102-0.787 0.445-1.518 0.445-2.323 0-1.144-0.41-2.251-0.648-3.379-0.205-1.024-0.205-2.067-0.598-3.054-0.648-1.605-1.758-3.021-2.918-4.405-0.323-0.376-0.443-0.854-0.802-1.211 0 0 0 0-0.018 0-0.018-0.016-0.018-0.053-0.034-0.069l-51.424-51.2c-0.546-0.547-1.245-0.768-1.859-1.229-0.904-0.699-1.774-1.347-2.782-1.843-0.971-0.478-1.962-0.768-2.986-1.043-1.093-0.307-2.15-0.546-3.294-0.632-1.042-0.067-2.014 0.035-3.054 0.155-1.144 0.136-2.218 0.29-3.328 0.648-1.075 0.341-2.030 0.869-3.019 1.434-0.632 0.358-1.349 0.478-1.947 0.922l-56.746 42.361-28.826-28.707 76.768-76.357 139.539 137.236-29.681 29.406zM511.334 588.613c-0.494-0.069-0.957 0.12-1.45 0.086-1.246-0.069-2.44 0.018-3.686 0.221-0.973 0.171-1.894 0.358-2.816 0.683-1.093 0.376-2.082 0.888-3.091 1.501-0.955 0.581-1.826 1.195-2.661 1.963-0.411 0.357-0.904 0.53-1.28 0.938l-150.345 164.662-138.497-136.212 90.659-90.181c6.674-6.656 6.709-17.461 0.051-24.15-3.362-3.362-7.781-5.018-12.202-5v-0.016l-70.998 0.426 0.888-51.438 99.329 0.854c40.482 41.405 96.939 67.227 159.405 67.227 13.994 0 27.648-1.45 40.942-3.926 1.28 1.024 2.541 2.066 4.147 2.714l77.11 30.721 10.579 52.598-96.085-13.67zM640.65 594.314l-10.018-49.854 46.285-34.56 30.294 40.208-66.561 44.206zM760.766 503.722l-26.813 25.122-29.798-39.56 26.606-20.395c4.966-3.821 11.23-5.376 17.374-4.573 6.178 0.869 11.64 4.096 15.36 9.096 6.931 9.336 5.752 22.358-2.73 30.31z"></path>
<path fill="#212121" d="M435.266 593.409l-68.574-68.267c-6.638-6.638-17.427-6.638-24.083 0l-68.557 68.267c-3.208 3.226-5.018 7.56-5.018 12.099 0 4.541 1.792 8.893 5.018 12.101l68.557 68.267c3.328 3.31 7.699 4.966 12.051 4.966s8.72-1.656 12.032-4.966l68.574-68.267c3.208-3.208 5.035-7.56 5.035-12.101 0-4.539-1.811-8.891-5.035-12.099zM354.659 649.696l-44.374-44.187 44.374-44.186 44.39 44.186-44.39 44.187z"></path>
<path fill="#212121" d="M549.256 162.265l-8.243 33.144c2.27 0.565 55.605 14.456 55.605 68.763h34.134c-0.001-64.549-53.301-94.893-81.496-101.907z"></path>
<path fill="#212121" d="M630.752 298.304h-34.134v34.134h34.134v-34.134z"></path>
</svg>
